name ./resultDataOpenSim/trcMotMarkerGrf/sub06/grf-12-06.mot
datacolumns 19
datarows 22
range 1.07600000 1.16000000
endheader

                time	     ground_force_vx	     ground_force_vy	     ground_force_vz	     ground_force_px	     ground_force_py	     ground_force_pz	   l_ground_force_vx	   l_ground_force_vy	   l_ground_force_vz	   l_ground_force_px	   l_ground_force_py	   l_ground_force_pz	     ground_torque_x	     ground_torque_y	     ground_torque_z	   l_ground_torque_x	   l_ground_torque_y	   l_ground_torque_z	
          1.07600000	          0.00000000	          0.00000000	          0.00000000	          0.00000000	          0.00000000	          0.00000000	        115.88883441	        690.25579811	         16.27745405	          0.09470055	         -0.02500200	         -0.03257825	          0.00000000	          0.00000000	          0.00000000	          0.00000000	         -2.28737581	          0.00000000	
          1.08000000	          0.00000000	          0.00000000	          0.00000000	          0.00000000	          0.00000000	          0.00000000	        123.01016725	        697.40761220	         15.55009891	          0.09526217	         -0.02500200	         -0.03212004	          0.00000000	          0.00000000	          0.00000000	          0.00000000	         -2.36144711	          0.00000000	
          1.08400000	          0.00000000	          0.00000000	          0.00000000	          0.00000000	          0.00000000	          0.00000000	        130.13503686	        703.16171574	         14.67864868	          0.09593391	         -0.02500197	         -0.03162005	          0.00000000	          0.00000000	          0.00000000	          0.00000000	         -2.41903883	          0.00000000	
          1.08800000	          0.00000000	          0.00000000	          0.00000000	          0.00000000	          0.00000000	          0.00000000	        137.24169701	        707.51780853	         13.67696684	          0.09669052	         -0.02500173	         -0.03108528	          0.00000000	          0.00000000	          0.00000000	          0.00000000	         -2.45950270	          0.00000000	
          1.09200000	          0.00000000	          0.00000000	          0.00000000	          0.00000000	          0.00000000	          0.00000000	        144.30286671	        710.36151084	         12.56870509	          0.09748094	         -0.02500100	         -0.03054202	          0.00000000	          0.00000000	          0.00000000	          0.00000000	         -2.48274553	          0.00000000	
          1.09600000	          0.00000000	          0.00000000	          0.00000000	          0.00000000	          0.00000000	          0.00000000	        151.26860484	        711.50169896	         11.36879044	          0.09825691	         -0.02500100	         -0.03001769	          0.00000000	          0.00000000	          0.00000000	          0.00000000	         -2.48968406	          0.00000000	
          1.10000000	          0.00000000	          0.00000000	          0.00000000	          0.00000000	          0.00000000	          0.00000000	        158.07621998	        710.74965343	         10.07734179	          0.09899189	         -0.02500100	         -0.02953278	          0.00000000	          0.00000000	          0.00000000	          0.00000000	         -2.48251307	          0.00000000	
          1.10400000	          0.00000000	          0.00000000	          0.00000000	          0.00000000	          0.00000000	          0.00000000	        164.65992451	        707.94895702	          8.68671596	          0.09968225	         -0.02500100	         -0.02908657	          0.00000000	          0.00000000	          0.00000000	          0.00000000	         -2.46447800	          0.00000000	
          1.10800000	          0.00000000	          0.00000000	          0.00000000	          0.00000000	          0.00000000	          0.00000000	        170.93467034	        702.96007312	          7.18812676	          0.10034583	         -0.02500100	         -0.02865962	          0.00000000	          0.00000000	          0.00000000	          0.00000000	         -2.43918716	          0.00000000	
          1.11200000	          0.00000000	          0.00000000	          0.00000000	          0.00000000	          0.00000000	          0.00000000	        176.79204588	        695.63076866	          5.57284063	          0.10098429	         -0.02500012	         -0.02824845	          0.00000000	          0.00000000	          0.00000000	          0.00000000	         -2.40980713	          0.00000000	
          1.11600000	          0.00000000	          0.00000000	          0.00000000	          0.00000000	          0.00000000	          0.00000000	        182.11666445	        685.78780605	          3.84379336	          0.10161053	         -0.02500000	         -0.02785404	          0.00000000	          0.00000000	          0.00000000	          0.00000000	         -2.37852449	          0.00000000	
          1.12000000	          0.00000000	          0.00000000	          0.00000000	          0.00000000	          0.00000000	          0.00000000	        186.78852872	        673.26277381	          2.02670120	          0.10225591	         -0.02500000	         -0.02747069	          0.00000000	          0.00000000	          0.00000000	          0.00000000	         -2.34643330	          0.00000000	
          1.12400000	          0.00000000	          0.00000000	          0.00000000	          0.00000000	          0.00000000	          0.00000000	        190.66504458	        657.92008615	          0.15889260	          0.10294047	         -0.02500000	         -0.02710311	          0.00000000	          0.00000000	          0.00000000	          0.00000000	         -2.31373644	          0.00000000	
          1.12800000	          0.00000000	          0.00000000	          0.00000000	          0.00000000	          0.00000000	          0.00000000	        193.56877928	        639.66031729	         -1.72033190	          0.10365789	         -0.02499928	         -0.02676211	          0.00000000	          0.00000000	          0.00000000	          0.00000000	         -2.28004975	          0.00000000	
          1.13200000	          0.00000000	          0.00000000	          0.00000000	          0.00000000	          0.00000000	          0.00000000	        195.29277179	        618.37889618	         -3.56781938	          0.10438875	         -0.02499900	         -0.02645466	          0.00000000	          0.00000000	          0.00000000	          0.00000000	         -2.24467785	          0.00000000	
          1.13600000	          0.00000000	          0.00000000	          0.00000000	          0.00000000	          0.00000000	          0.00000000	        195.60381534	        593.92252736	         -5.34789717	          0.10513318	         -0.02499836	         -0.02617749	          0.00000000	          0.00000000	          0.00000000	          0.00000000	         -2.20679237	          0.00000000	
          1.14000000	          0.00000000	          0.00000000	          0.00000000	          0.00000000	          0.00000000	          0.00000000	        194.24425940	        566.12952465	         -7.04266676	          0.10590605	         -0.02499800	         -0.02592565	          0.00000000	          0.00000000	          0.00000000	          0.00000000	         -2.16539649	          0.00000000	
          1.14400000	          0.00000000	          0.00000000	          0.00000000	          0.00000000	          0.00000000	          0.00000000	        190.95652087	        534.92933867	         -8.63328435	          0.10674096	         -0.02499800	         -0.02569818	          0.00000000	          0.00000000	          0.00000000	          0.00000000	         -2.11900654	          0.00000000	
          1.14800000	          0.00000000	          0.00000000	          0.00000000	          0.00000000	          0.00000000	          0.00000000	        185.52307364	        500.41492589	        -10.07297575	          0.10770434	         -0.02499748	         -0.02548506	          0.00000000	          0.00000000	          0.00000000	          0.00000000	         -2.06521275	          0.00000000	
          1.15200000	          0.00000000	          0.00000000	          0.00000000	          0.00000000	          0.00000000	          0.00000000	        177.80037352	        462.87801486	        -11.28756276	          0.10886209	         -0.02499700	         -0.02527619	          0.00000000	          0.00000000	          0.00000000	          0.00000000	         -2.00046187	          0.00000000	
          1.15600000	          2.29582848	          4.74834173	          1.22542827	          0.74576270	          0.00000000	          0.00423828	        167.75005194	        422.84500178	        -12.20236518	          0.11026354	         -0.02499656	         -0.02506932	          0.00000000	          0.44926177	          0.00000000	          0.00000000	         -1.92035237	          0.00000000	
          1.16000000	         -6.83733040	        164.43445428	         10.55905558	          0.75457568	          0.00000000	          0.00405076	        155.47095192	        381.11070544	        -12.76370402	          0.11196673	         -0.02499560	         -0.02485575	          0.00000000	          0.79035827	          0.00000000	          0.00000000	         -1.82050453	          0.00000000	
